<?xml version="1.0" standalone="no"?>
<!DOCTYPE svg PUBLIC "-//W3C//DTD SVG 20010904//EN"
 "http://www.w3.org/TR/2001/REC-SVG-20010904/DTD/svg10.dtd">
<svg version="1.0" xmlns="http://www.w3.org/2000/svg"
 width="700.000000pt" height="700.000000pt" viewBox="0 0 700.000000 700.000000"
 preserveAspectRatio="xMidYMid meet">
<metadata>
Created by potrace 1.14, written by Peter Selinger 2001-2017
</metadata>
<g transform="translate(0.000000,700.000000) scale(0.100000,-0.100000)"
fill="#000000" stroke="none">
<path d="M1328 6562 c-14 -3 -16 -271 -16 -2710 0 -1489 -1 -2719 -1 -2733
l-1 -25 -325 0 c-227 -1 -325 3 -326 10 -1 6 -2 1064 -3 2351 l-1 2340 -328 1
-327 1 0 -2679 c0 -1473 3 -2678 8 -2679 37 -4 6976 -3 6983 2 5 3 8 1244 7
3064 l-3 3058 -2826 1 c-1554 1 -2832 0 -2841 -2z m5012 -663 c4 -6 5 -4778 1
-4800 -1 -3 -984 -5 -2186 -5 l-2185 0 0 2406 0 2406 2183 0 c1200 0 2184 -3
2187 -7z"/>
<path d="M2409 5463 c-5 -45 -2 -1736 4 -1740 10 -6 1944 -6 1954 0 6 4 10
1703 4 1740 -1 9 -1961 9 -1962 0z"/>
<path d="M4812 5141 l0 -329 547 2 546 1 1 328 1 327 -548 0 -548 0 1 -329z"/>
<path d="M4815 4370 c-2 -3 -3 -150 -3 -328 l0 -322 47 0 c56 -1 973 -1 1017
0 l30 0 0 325 c0 222 -3 325 -10 326 -35 4 -1078 3 -1081 -1z"/>
<path d="M2445 3282 c-16 -2 -32 -7 -35 -12 -7 -11 -5 -624 2 -636 5 -7 3456
-12 3489 -5 8 1 6 638 -2 646 -7 6 -3398 13 -3454 7z"/>
<path d="M2408 2177 c-2 -7 -3 -154 -3 -327 l1 -315 1750 -3 1750 -2 -1 317
c-1 175 -3 323 -3 330 -3 17 -3489 17 -3494 0z"/>
</g>
</svg>
